<svg id="Icons" height="512" viewBox="0 0 60 60" width="512" xmlns="http://www.w3.org/2000/svg"><circle cx="30" cy="30" fill="#e0ad3b" r="29"/><circle cx="30" cy="30" fill="#fbdd4d" r="25"/><path d="m49 22.15v15.7a5.236 5.236 0 0 1 -2.622 4.55l-13.818 7.917a5.138 5.138 0 0 1 -5.12 0l-13.818-7.917a5.236 5.236 0 0 1 -2.622-4.55v-15.7a5.237 5.237 0 0 1 2.622-4.55l13.818-7.917a5.138 5.138 0 0 1 5.12 0l13.818 7.917a5.237 5.237 0 0 1 2.622 4.55z" fill="#30e5e5"/><path d="m30 47a1.155 1.155 0 0 1 -.57-.152l-13.819-7.921a1.239 1.239 0 0 1 -.611-1.076v-15.7a1.237 1.237 0 0 1 .61-1.075l13.819-7.921a1.107 1.107 0 0 1 1.14 0l13.82 7.92a1.239 1.239 0 0 1 .611 1.079v15.7a1.237 1.237 0 0 1 -.61 1.075l-13.82 7.919a1.155 1.155 0 0 1 -.57.152z" fill="#1584e8"/><g fill="#fff"><path d="m25 24a1 1 0 0 0 -1 1v5.764l-3.1-6.211a1 1 0 0 0 -1.9.447v10a1 1 0 0 0 2 0v-5.764l3.105 6.211a1 1 0 0 0 .895.553 1.067 1.067 0 0 0 .23-.026 1 1 0 0 0 .77-.974v-10a1 1 0 0 0 -1-1z"/><path d="m33 24h-4a1 1 0 0 0 -1 1v10a1 1 0 0 0 2 0v-4h2a1 1 0 0 0 0-2h-2v-3h3a1 1 0 0 0 0-2z"/><path d="m40 24h-4a1 1 0 0 0 0 2h1v9a1 1 0 0 0 2 0v-9h1a1 1 0 0 0 0-2z"/></g></svg>