<svg width="80" height="80" viewBox="0 0 80 80" fill="none" xmlns="http://www.w3.org/2000/svg">
<g clip-path="url(#clip0_3287_16498)">
<circle cx="40" cy="40" r="40" fill="#002680"/>
<circle cx="40" cy="40" r="34" stroke="url(#paint0_linear_3287_16498)" stroke-opacity="0.2" stroke-width="12"/>
<mask id="mask0_3287_16498" style="mask-type:alpha" maskUnits="userSpaceOnUse" x="0" y="0" width="80" height="80">
<circle cx="40" cy="40" r="40" fill="#D9D9D9"/>
</mask>
<g mask="url(#mask0_3287_16498)">
<circle opacity="0.7" cx="21.0667" cy="58.666" r="40" fill="url(#paint1_linear_3287_16498)"/>
<circle opacity="0.1" cx="70.1333" cy="11.1992" r="40" fill="white"/>
</g>
<g filter="url(#filter0_d_3287_16498)">
<mask id="mask1_3287_16498" style="mask-type:alpha" maskUnits="userSpaceOnUse" x="8" y="8" width="64" height="64">
<circle cx="40.0001" cy="39.9999" r="31.4667" fill="#D9D9D9"/>
</mask>
<g mask="url(#mask1_3287_16498)">
<path d="M38.6328 26.3516L41.4239 34.9364H50.456L43.149 40.2422L45.9401 48.8271L38.633 43.5213L31.3259 48.8271L34.1169 40.2422L26.8097 34.9364H35.8418L38.6328 26.3516Z" fill="white"/>
<path d="M26.2964 12.5332L28.3687 18.9068H35.0743L29.6494 22.8459L31.7216 29.2196L26.2966 25.2804L20.8716 29.2196L22.9437 22.8459L17.5187 18.9068H24.2243L26.2964 12.5332Z" fill="white"/>
<rect x="10.1335" y="60.2656" width="59.4667" height="6.4" fill="#F9E90D"/>
</g>
</g>
</g>
<defs>
<filter id="filter0_d_3287_16498" x="-5.86646" y="12.5332" width="91.4666" height="86.1328" filterUnits="userSpaceOnUse" color-interpolation-filters="sRGB">
<feFlood flood-opacity="0" result="BackgroundImageFix"/>
<feColorMatrix in="SourceAlpha" type="matrix" values="0 0 0 0 0 0 0 0 0 0 0 0 0 0 0 0 0 0 127 0" result="hardAlpha"/>
<feOffset dy="16"/>
<feGaussianBlur stdDeviation="8"/>
<feComposite in2="hardAlpha" operator="out"/>
<feColorMatrix type="matrix" values="0 0 0 0 0 0 0 0 0 0 0 0 0 0 0 0 0 0 0.25 0"/>
<feBlend mode="normal" in2="BackgroundImageFix" result="effect1_dropShadow_3287_16498"/>
<feBlend mode="normal" in="SourceGraphic" in2="effect1_dropShadow_3287_16498" result="shape"/>
</filter>
<linearGradient id="paint0_linear_3287_16498" x1="40" y1="0" x2="40" y2="80" gradientUnits="userSpaceOnUse">
<stop/>
<stop offset="1" stop-opacity="0"/>
</linearGradient>
<linearGradient id="paint1_linear_3287_16498" x1="-1.50773e-05" y1="43.3327" x2="61.0628" y2="43.8148" gradientUnits="userSpaceOnUse">
<stop stop-color="#010E2D"/>
<stop offset="1" stop-color="#002680"/>
</linearGradient>
<clipPath id="clip0_3287_16498">
<rect width="80" height="80" fill="white"/>
</clipPath>
</defs>
</svg>
