<svg width="80" height="80" viewBox="0 0 80 80" fill="none" xmlns="http://www.w3.org/2000/svg">
<g clip-path="url(#clip0_3287_16486)">
<circle cx="40" cy="40" r="40" fill="#F5A14A"/>
<circle cx="40" cy="40" r="34" stroke="url(#paint0_linear_3287_16486)" stroke-opacity="0.08" stroke-width="12"/>
<mask id="mask0_3287_16486" style="mask-type:alpha" maskUnits="userSpaceOnUse" x="0" y="0" width="80" height="80">
<circle cx="40" cy="40" r="40" fill="#D9D9D9"/>
</mask>
<g mask="url(#mask0_3287_16486)">
<circle opacity="0.7" cx="21.0667" cy="58.666" r="40" fill="url(#paint1_linear_3287_16486)"/>
<circle opacity="0.15" cx="70.1333" cy="11.1992" r="40" fill="white"/>
<g filter="url(#filter0_d_3287_16486)">
<path d="M67.1574 28.8961L66.9287 51.1016C66.9015 53.7406 65.4743 56.1823 63.173 57.5059L43.8805 68.6045C41.5875 69.9282 38.7751 69.9282 36.5094 68.6045L17.4537 57.4977C15.1879 56.1741 13.8028 53.7324 13.83 51.0934L14.0586 28.8961C14.0857 26.2571 15.513 23.8154 17.8142 22.4917L37.0985 11.3931C39.3915 10.0695 42.2039 10.0695 44.4697 11.3931L63.5336 22.4917C65.7994 23.8154 67.1845 26.2571 67.1574 28.8961Z" fill="white"/>
</g>
<path d="M23.4151 25.1172L23.1072 55.0127L21.7585 54.2341L21.2644 53.9522C21.2644 53.9522 21.2244 53.9253 21.2109 53.9253C21.1975 53.9253 21.1843 53.8985 21.1575 53.8985C19.6224 52.9588 18.686 51.2674 18.7047 49.4551L18.8977 30.715C18.9162 28.9162 19.8602 27.2516 21.4014 26.2985C21.4014 26.2985 21.4148 26.2985 21.4284 26.2851C21.4418 26.2851 21.469 26.2582 21.496 26.2448C21.5094 26.2448 21.5364 26.2314 21.55 26.218L22.0499 25.9361L23.4147 25.1575L23.4151 25.1172Z" fill="#F28A4B"/>
<path d="M31.9568 20.2168L31.548 59.9119L30.5198 59.3212L27.6756 57.6701L27.1147 57.3479L27.4705 22.7942L28.038 22.472L30.9163 20.8209L31.9568 20.2168Z" fill="#F28A4B"/>
<path d="M40.6365 16.123L40.1434 64.0069C39.9419 64.0069 39.727 64.0069 39.5256 63.9934C38.8009 63.9263 38.0779 63.6981 37.4369 63.3357C37.4369 63.3357 37.41 63.3357 37.4101 63.3222L36.4353 62.7584L35.7009 62.3289L36.1593 17.8145L36.9026 17.3849L37.889 16.8211C37.889 16.8211 37.9024 16.8211 37.9159 16.8211C38.5779 16.4452 39.2922 16.217 40.0182 16.1633C40.2199 16.1365 40.4349 16.1365 40.6362 16.1499L40.6365 16.123Z" fill="#F28A4B"/>
<path d="M50.3905 58.8647L49.0393 59.6299L46.4043 61.1468L40.2354 54.9314L40.2998 48.6758L50.3905 58.8647Z" fill="#F28A4B"/>
<path d="M51.1113 21.4659L40.4718 31.9636L40.5364 25.6945L47.1854 19.1973L49.4555 20.5128L51.1113 21.4659Z" fill="#F28A4B"/>
<path d="M44.5636 40.3137L58.4035 54.2747L57.3631 54.8654L54.5659 56.4763L54.4037 56.5703L40.3644 42.4078L40.4074 38.2329L55.064 23.7617L57.6679 25.2652L58.9631 26.0304L44.5636 40.3137Z" fill="#F28A4B"/>
<path d="M61.7497 35.7354L57.1084 40.3265L61.6557 44.8638L61.6084 49.4549C61.6054 49.7502 61.5753 50.059 61.5186 50.3543C61.4899 50.5288 61.4477 50.7167 61.3921 50.8912L50.8352 40.3265L61.7049 29.6543C61.7049 29.6543 61.7306 29.7617 61.7302 29.802C61.7809 30.0973 61.8047 30.3926 61.8016 30.7014L61.7497 35.7354V35.7354Z" fill="#F28A4B"/>
</g>
</g>
<defs>
<filter id="filter0_d_3287_16486" x="-2.17041" y="10.4004" width="85.3281" height="91.1973" filterUnits="userSpaceOnUse" color-interpolation-filters="sRGB">
<feFlood flood-opacity="0" result="BackgroundImageFix"/>
<feColorMatrix in="SourceAlpha" type="matrix" values="0 0 0 0 0 0 0 0 0 0 0 0 0 0 0 0 0 0 127 0" result="hardAlpha"/>
<feOffset dy="16"/>
<feGaussianBlur stdDeviation="8"/>
<feComposite in2="hardAlpha" operator="out"/>
<feColorMatrix type="matrix" values="0 0 0 0 0 0 0 0 0 0 0 0 0 0 0 0 0 0 0.15 0"/>
<feBlend mode="normal" in2="BackgroundImageFix" result="effect1_dropShadow_3287_16486"/>
<feBlend mode="normal" in="SourceGraphic" in2="effect1_dropShadow_3287_16486" result="shape"/>
</filter>
<linearGradient id="paint0_linear_3287_16486" x1="40" y1="0" x2="40" y2="80" gradientUnits="userSpaceOnUse">
<stop/>
<stop offset="1" stop-opacity="0"/>
</linearGradient>
<linearGradient id="paint1_linear_3287_16486" x1="-1.50773e-05" y1="43.3327" x2="61.0628" y2="43.8148" gradientUnits="userSpaceOnUse">
<stop stop-color="#E2622C"/>
<stop offset="1" stop-color="#F1A867"/>
</linearGradient>
<clipPath id="clip0_3287_16486">
<rect width="80" height="80" fill="white"/>
</clipPath>
</defs>
</svg>
